<mxfile host="65bd71144e">
    <diagram id="KX2-C0rVhuvZmqY7ME6o" name="Page-1">
        <mxGraphModel dx="1234" dy="799" grid="1" gridSize="10" guides="1" tooltips="1" connect="1" arrows="1" fold="1" page="1" pageScale="1" pageWidth="850" pageHeight="1100" background="#000000" math="0" shadow="0">
            <root>
                <mxCell id="0"/>
                <mxCell id="1" parent="0"/>
                <mxCell id="2" value="http//&amp;nbsp; clinent" style="shape=ext;double=1;whiteSpace=wrap;html=1;aspect=fixed;shadow=1;" vertex="1" parent="1">
                    <mxGeometry x="100" y="320" width="181" height="181" as="geometry"/>
                </mxCell>
                <mxCell id="MUq5QfSX5-uI99GV9mdV-9" value="&lt;div&gt;&lt;span style=&quot;font-size: 20px;&quot;&gt;http//server&lt;/span&gt;&lt;/div&gt;" style="shape=ext;double=1;whiteSpace=wrap;html=1;aspect=fixed;shadow=1;" vertex="1" parent="1">
                    <mxGeometry x="530" y="330" width="181" height="181" as="geometry"/>
                </mxCell>
                <mxCell id="MUq5QfSX5-uI99GV9mdV-11" value="" style="endArrow=classic;html=1;entryX=0;entryY=0.5;entryDx=0;entryDy=0;exitX=0.986;exitY=0.577;exitDx=0;exitDy=0;exitPerimeter=0;strokeWidth=6;strokeColor=#FF182A;" edge="1" parent="1" source="2" target="MUq5QfSX5-uI99GV9mdV-9">
                    <mxGeometry width="50" height="50" relative="1" as="geometry">
                        <mxPoint x="380" y="500" as="sourcePoint"/>
                        <mxPoint x="430" y="450" as="targetPoint"/>
                    </mxGeometry>
                </mxCell>
            </root>
        </mxGraphModel>
    </diagram>
    <diagram id="GHYP7W4p2lH_Yzz2dSDy" name="Page-2">
        <mxGraphModel dx="388" dy="464" grid="0" gridSize="10" guides="1" tooltips="1" connect="1" arrows="1" fold="1" page="1" pageScale="1" pageWidth="850" pageHeight="1100" math="0" shadow="0">
            <root>
                <mxCell id="0"/>
                <mxCell id="1" parent="0"/>
            </root>
        </mxGraphModel>
    </diagram>
</mxfile>